<?xml version="1.0" encoding="UTF-8" standalone="no"?>
<!-- Created with Inkscape (http://www.inkscape.org/) -->

<svg
   xmlns:dc="http://purl.org/dc/elements/1.1/"
   xmlns:cc="http://creativecommons.org/ns#"
   xmlns:rdf="http://www.w3.org/1999/02/22-rdf-syntax-ns#"
   xmlns:svg="http://www.w3.org/2000/svg"
   xmlns="http://www.w3.org/2000/svg"
   xmlns:sodipodi="http://sodipodi.sourceforge.net/DTD/sodipodi-0.dtd"
   xmlns:inkscape="http://www.inkscape.org/namespaces/inkscape"
   width="330"
   height="330"
   id="svg2"
   version="1.1"
   inkscape:version="0.48.4 r9939"
   sodipodi:docname="puke.svg">
  <defs
     id="defs4" />
  <sodipodi:namedview
     id="base"
     pagecolor="#ffffff"
     bordercolor="#666666"
     borderopacity="1.0"
     inkscape:pageopacity="0.0"
     inkscape:pageshadow="2"
     inkscape:zoom="1.4"
     inkscape:cx="101.84706"
     inkscape:cy="116.33599"
     inkscape:document-units="px"
     inkscape:current-layer="layer1"
     showgrid="false"
     inkscape:window-width="1581"
     inkscape:window-height="988"
     inkscape:window-x="45"
     inkscape:window-y="46"
     inkscape:window-maximized="0"
     fit-margin-top="0"
     fit-margin-left="0"
     fit-margin-right="0"
     fit-margin-bottom="0" />
  <metadata
     id="metadata7">
    <rdf:RDF>
      <cc:Work
         rdf:about="">
        <dc:format>image/svg+xml</dc:format>
        <dc:type
           rdf:resource="http://purl.org/dc/dcmitype/StillImage" />
      </cc:Work>
    </rdf:RDF>
  </metadata>
  <g
     inkscape:label="Layer 1"
     inkscape:groupmode="layer"
     id="layer1"
     transform="translate(-34.21875,-387.4375)">
    <path
       style="fill:#000000;fill-opacity:1;fill-rule:evenodd;stroke:none"
       d="m 189.21875,428.0625 c -3.8048,0.003 -7.65312,0.76337 -11.375,2.34375 -14.88752,6.32151 -21.82151,23.51872 -15.5,38.40625 6.32152,14.88752 23.48747,21.82151 38.375,15.5 2.07773,-0.88224 3.99617,-1.98006 5.75,-3.25 -5.90986,-3.5331 -6.58594,-8.00609 -1.375,-10.21875 2.76394,-1.17362 6.65365,-1.51173 10.6875,-1.0625 3.40843,-7.27248 3.85492,-15.86913 0.46875,-23.84375 -4.74113,-11.16565 -15.61684,-17.88358 -27.03125,-17.875 z M 202.75,445.78125 c 0.0634,0.007 0.18017,0.0589 0.3125,0.125 3.20146,1.60007 7.70236,4.64669 6.9375,7.6875 -0.5052,2.00852 -13.97904,-0.9825 -11.65625,-1.4375 2.32837,-0.45609 6.06242,1.30946 7.96875,0.5 1.78719,-0.75888 -4.51363,-6.97308 -3.5625,-6.875 z"
       id="path3755"
       inkscape:connector-curvature="0" />
    <path
       style="fill:#000000;stroke:none"
       d="m 213.53765,489.83746 c 9.26479,14.25027 5.47049,16.80801 10.51337,28.50055 5.04284,11.69253 7.16181,28.13514 12.55178,29.59671 5.38998,1.46156 8.547,8.40399 17.7581,12.4233 9.2111,4.01932 12.4981,19.36576 17.56357,19.00037 5.06549,-0.36539 -9.38723,-26.67359 -1.91689,-27.03898 7.47034,-0.36539 17.82265,-2.55773 4.18333,-15.71183 -13.6393,-13.15409 -21.57923,-14.98106 -24.00339,-24.11585 -2.42416,-9.13478 -9.14656,-19.00036 -17.30028,-23.38505 -8.15373,-4.38471 -25.22843,-12.05792 -19.34959,0.73078 z"
       id="path3762"
       inkscape:connector-curvature="0" />
    <path
       sodipodi:type="arc"
       style="fill:#000000;fill-opacity:1;fill-rule:evenodd;stroke:none"
       id="path3766"
       sodipodi:cx="198.39285"
       sodipodi:cy="492.89789"
       sodipodi:rx="1.25"
       sodipodi:ry="1.6071428"
       d="m 199.64285,492.89789 c 0,0.8876 -0.55964,1.60714 -1.25,1.60714 -0.69035,0 -1.25,-0.71954 -1.25,-1.60714 0,-0.8876 0.55965,-1.60714 1.25,-1.60714 0.69036,0 1.25,0.71954 1.25,1.60714 z"
       transform="matrix(1.122269,0,0.40617868,1.0230963,-213.08667,-15.358021)" />
    <path
       sodipodi:type="arc"
       style="fill:#000000;fill-opacity:1;fill-rule:evenodd;stroke:none"
       id="path3768"
       sodipodi:cx="221.78572"
       sodipodi:cy="595.93359"
       sodipodi:rx="2.5"
       sodipodi:ry="3.9285715"
       d="m 224.28572,595.93359 c 0,2.16969 -1.11929,3.92858 -2.5,3.92858 -1.38071,0 -2.5,-1.75889 -2.5,-3.92858 0,-2.16969 1.11929,-3.92857 2.5,-3.92857 1.38071,0 2.5,1.75888 2.5,3.92857 z"
       transform="matrix(1.122269,0,0.40617868,1.0230963,-213.08667,-15.358021)" />
    <path
       sodipodi:type="arc"
       style="fill:#000000;fill-opacity:1;fill-rule:evenodd;stroke:none"
       id="path3770"
       sodipodi:cx="207.32143"
       sodipodi:cy="569.32648"
       sodipodi:rx="3.0357144"
       sodipodi:ry="3.3928571"
       d="m 210.35714,569.32648 c 0,1.87382 -1.35913,3.39285 -3.03571,3.39285 -1.67658,0 -3.03572,-1.51903 -3.03572,-3.39285 0,-1.87383 1.35914,-3.39286 3.03572,-3.39286 1.67658,0 3.03571,1.51903 3.03571,3.39286 z"
       transform="matrix(1.122269,0,0.40617868,1.0230963,-213.08667,-15.358021)" />
    <path
       sodipodi:type="arc"
       style="fill:#000000;fill-opacity:1;fill-rule:evenodd;stroke:none"
       id="path3772"
       sodipodi:cx="239.28572"
       sodipodi:cy="566.64789"
       sodipodi:rx="2.8571429"
       sodipodi:ry="2.8571429"
       d="m 242.14286,566.64789 c 0,1.57795 -1.27918,2.85714 -2.85714,2.85714 -1.57796,0 -2.85714,-1.27919 -2.85714,-2.85714 0,-1.57796 1.27918,-2.85714 2.85714,-2.85714 1.57796,0 2.85714,1.27918 2.85714,2.85714 z"
       transform="matrix(1.122269,0,0.40617868,1.0230963,-213.08667,-15.358021)" />
    <path
       sodipodi:type="arc"
       style="fill:#000000;fill-opacity:1;fill-rule:evenodd;stroke:none"
       id="path3774"
       sodipodi:cx="243.03572"
       sodipodi:cy="558.43359"
       sodipodi:rx="1.6071428"
       sodipodi:ry="2.8571429"
       d="m 244.64286,558.43359 c 0,1.57796 -0.71954,2.85715 -1.60714,2.85715 -0.8876,0 -1.60714,-1.27919 -1.60714,-2.85715 0,-1.57795 0.71954,-2.85714 1.60714,-2.85714 0.8876,0 1.60714,1.27919 1.60714,2.85714 z"
       transform="matrix(1.122269,0,0.40617868,1.0230963,-213.08667,-15.358021)" />
    <path
       sodipodi:type="arc"
       style="fill:#000000;fill-opacity:1;fill-rule:evenodd;stroke:none"
       id="path3776"
       sodipodi:cx="179.82143"
       sodipodi:cy="593.9693"
       sodipodi:rx="1.6071428"
       sodipodi:ry="2.3214285"
       d="m 181.42857,593.9693 c 0,1.28209 -0.71954,2.32143 -1.60714,2.32143 -0.8876,0 -1.60715,-1.03934 -1.60715,-2.32143 0,-1.28209 0.71955,-2.32143 1.60715,-2.32143 0.8876,0 1.60714,1.03934 1.60714,2.32143 z"
       transform="matrix(1.122269,0,0.40617868,1.0230963,-213.08667,-15.358021)" />
    <path
       sodipodi:type="arc"
       style="fill:#000000;fill-opacity:1;fill-rule:evenodd;stroke:none"
       id="path3778"
       sodipodi:cx="245.53572"
       sodipodi:cy="614.86218"
       sodipodi:rx="1.6071428"
       sodipodi:ry="1.4285715"
       d="m 247.14286,614.86218 c 0,0.78898 -0.71954,1.42857 -1.60714,1.42857 -0.8876,0 -1.60714,-0.63959 -1.60714,-1.42857 0,-0.78898 0.71954,-1.42857 1.60714,-1.42857 0.8876,0 1.60714,0.63959 1.60714,1.42857 z"
       transform="matrix(1.122269,0,0.40617868,1.0230963,-213.08667,-15.358021)" />
    <path
       sodipodi:type="arc"
       style="fill:#000000;fill-opacity:1;fill-rule:evenodd;stroke:none"
       id="path3780"
       sodipodi:cx="205.53572"
       sodipodi:cy="583.07648"
       sodipodi:rx="1.25"
       sodipodi:ry="2.1428571"
       d="m 206.78572,583.07648 c 0,1.18346 -0.55964,2.14285 -1.25,2.14285 -0.69036,0 -1.25,-0.95939 -1.25,-2.14285 0,-1.18347 0.55964,-2.14286 1.25,-2.14286 0.69036,0 1.25,0.95939 1.25,2.14286 z"
       transform="matrix(1.122269,0,0.40617868,1.0230963,-213.08667,-15.358021)" />
    <path
       sodipodi:type="arc"
       style="fill:#000000;fill-opacity:1;fill-rule:evenodd;stroke:none"
       id="path3782"
       sodipodi:cx="197.14285"
       sodipodi:cy="530.75507"
       sodipodi:rx="1.0714285"
       sodipodi:ry="1.25"
       d="m 198.21428,530.75507 c 0,0.69035 -0.47969,1.25 -1.07143,1.25 -0.59173,0 -1.07143,-0.55965 -1.07143,-1.25 0,-0.69036 0.4797,-1.25 1.07143,-1.25 0.59174,0 1.07143,0.55964 1.07143,1.25 z"
       transform="matrix(1.122269,0,0.40617868,1.0230963,-213.08667,-15.358021)" />
    <path
       sodipodi:type="arc"
       style="fill:#000000;fill-opacity:1;fill-rule:evenodd;stroke:none"
       id="path3784"
       sodipodi:cx="241.25"
       sodipodi:cy="525.93359"
       sodipodi:rx="0.89285713"
       sodipodi:ry="1.0714285"
       d="m 242.14286,525.93359 c 0,0.59174 -0.39975,1.07143 -0.89286,1.07143 -0.49311,0 -0.89286,-0.47969 -0.89286,-1.07143 0,-0.59173 0.39975,-1.07142 0.89286,-1.07142 0.49311,0 0.89286,0.47969 0.89286,1.07142 z"
       transform="matrix(1.122269,0,0.40617868,1.0230963,-213.08667,-15.358021)" />
    <path
       sodipodi:type="arc"
       style="fill:#000000;fill-opacity:1;fill-rule:evenodd;stroke:none"
       id="path3786"
       sodipodi:cx="253.92857"
       sodipodi:cy="592.89789"
       sodipodi:rx="4.2857141"
       sodipodi:ry="4.4642859"
       d="m 258.21429,592.89789 c 0,2.46556 -1.91878,4.46428 -4.28572,4.46428 -2.36693,0 -4.28571,-1.99872 -4.28571,-4.46428 0,-2.46556 1.91878,-4.46429 4.28571,-4.46429 2.36694,0 4.28572,1.99873 4.28572,4.46429 z"
       transform="matrix(1.122269,0,0.40617868,1.0230963,-213.08667,-15.358021)" />
    <path
       sodipodi:type="arc"
       style="fill:#000000;fill-opacity:1;fill-rule:evenodd;stroke:none"
       id="path3788"
       sodipodi:cx="233.34525"
       sodipodi:cy="583.65143"
       sodipodi:rx="6.0609155"
       sodipodi:ry="6.5659914"
       d="m 239.40616,583.65143 c 0,3.6263 -2.71356,6.56599 -6.06091,6.56599 -3.34736,0 -6.06092,-2.93969 -6.06092,-6.56599 0,-3.6263 2.71356,-6.56599 6.06092,-6.56599 3.34735,0 6.06091,2.93969 6.06091,6.56599 z"
       transform="matrix(1.122269,0,0.40617868,1.0230963,-213.08667,-15.358021)" />
    <path
       style="fill:#000000;fill-opacity:1;fill-rule:evenodd;stroke:none"
       d="m 153.25,492.3125 c -7.07197,0 -13.77216,5.60351 -15.03125,12.5625 l -8.13393,48.16964 c -1.25909,6.95899 1.99946,17.20536 9.07143,17.20536 l 17.71875,0 c 7.07197,0 8.7214,1.97263 9.98049,-4.98636 L 181.46875,504.875 c 1.25909,-6.95899 -3.42803,-12.5625 -10.5,-12.5625 z"
       id="rect3812"
       inkscape:connector-curvature="0"
       sodipodi:nodetypes="sccssccss" />
    <path
       style="fill:none;stroke:#000000;stroke-width:20;stroke-linecap:round;stroke-linejoin:round;stroke-miterlimit:4;stroke-opacity:1;stroke-dasharray:none"
       d="m 144.69309,553.96789 3.37454,-56.0573 16.57523,-4.83412 15.35714,9.64285 -3.99551,43.1641 9.0673,37.01973"
       id="path3814"
       inkscape:connector-curvature="0"
       sodipodi:nodetypes="cccccc" />
    <path
       style="fill:none;stroke:#000000;stroke-width:20;stroke-linecap:round;stroke-linejoin:round;stroke-miterlimit:4;stroke-opacity:1;stroke-dasharray:none"
       d="m 152.7433,675.57031 -3.77447,-71.33576 -9.09664,-46.45395 17.79369,2.24746 -4.8954,115.29278"
       id="path3816"
       inkscape:connector-curvature="0"
       sodipodi:nodetypes="ccccc" />
    <rect
       style="fill:none;stroke:#000000;stroke-width:15;stroke-linecap:round;stroke-linejoin:round;stroke-miterlimit:4;stroke-dasharray:none"
       id="rect3839"
       width="315"
       height="314.99997"
       x="41.714287"
       y="394.93359"
       ry="0" />
  </g>
</svg>
